<?xml version="1.0"?>
<svg width="400" height="400" xmlns="http://www.w3.org/2000/svg" xmlns:svg="http://www.w3.org/2000/svg" preserveAspectRatio="xMidYMid meet" version="1.0">
 <g class="layer">
  <title>Layer 1</title>
  <g fill="#3fb7a0" id="svg_1" transform="translate(0 400) scale(0.077 -0.077)">
   <path d="m880.93692,4482.7078c-164.86203,-276.25206 -257.37453,-525.35115 -311.93319,-847.64522c-34.39567,-201.87651 -28.46538,-606.81009 23.72116,-1599.66474c24.90721,-484.03139 46.25625,-880.70102 47.44231,-881.88159c1.18605,-1.18056 383.09665,-66.1116 849.21734,-144.02885l848.03129,-140.48716l144.69905,94.44515l145.8851,95.62571l145.8851,-95.62571l144.69905,-94.44515l848.03129,140.48716c466.12069,77.91725 848.03129,142.84829 849.21734,144.02885c1.18606,1.18057 22.5351,397.8502 47.44231,881.88159c52.18654,991.67408 58.11683,1374.17694 24.90722,1587.85909c-45.0702,285.69658 -148.25722,580.83768 -284.65386,812.2283l-68.79135,114.51474l-330.91011,0l-330.91011,0l42.69807,-61.38935c61.67501,-92.08402 130.46636,-233.75174 170.79232,-351.80818c68.79135,-207.77933 69.97741,-217.22385 69.97741,-1566.60893l0,-1231.32865l-189.76924,0l-189.76924,0l0,1223.0647c0,1044.79947 -2.37212,1241.95372 -18.97693,1347.02395c-29.65144,205.41821 -107.93125,409.65584 -220.60674,573.75429l-46.25625,67.29217l-663.00628,0l-663.00628,0l-46.25625,-67.29217c-93.69856,-136.94547 -164.86203,-303.40504 -212.30434,-495.83704c-17.79086,-72.01442 -20.16298,-210.14046 -23.72115,-1364.73242l-4.74423,-1283.27348l-188.58319,0l-189.76924,0l0,1231.32865c0,1349.38508 1.18606,1358.8296 69.97741,1566.60893c40.32596,118.05644 109.11731,259.72416 170.79232,351.80818l42.69808,61.38935l-330.91012,0l-330.91011,0l-40.32596,-67.29217zm1843.13374,-1650.429c109.11731,-38.95863 176.7226,-138.12603 186.21106,-273.89094l5.93029,-86.1812l64.04712,0c52.18654,0 68.79135,-5.90282 92.5125,-29.5141l29.65145,-28.33355l0,-414.3781l0,-414.37809l-29.65145,-28.33355l-28.46538,-29.51411l-416.30627,0l-416.30627,0l-28.46539,29.51411l-29.65144,28.33355l0,414.37809l0,414.3781l29.65144,28.33355c23.72116,23.61128 40.32597,29.5141 92.51251,29.5141l64.04711,0l5.93029,86.1812c7.11635,101.52854 36.76779,167.64015 103.18703,221.94611c81.83798,68.47273 176.7226,86.1812 275.16539,51.94483l0.00001,0z" fill="#3fb7a0" id="svg_2"/>
   <path d="m2562.7668,2631.58286c-24.90721,-23.61129 -29.65144,-40.13919 -29.65144,-94.44515l0,-64.93105l94.88462,0l94.88462,0l0,64.93105c0,79.09781 -34.39568,123.95926 -94.88462,123.95926c-22.5351,0 -47.44231,-10.62508 -65.23318,-29.51411z" fill="#3fb7a0" id="svg_3"/>
   <path d="m2562.7668,2159.3571c-36.76779,-35.41693 -37.95385,-86.1812 -5.93029,-127.50095c20.16299,-25.97241 23.72116,-47.22257 23.72116,-172.3624l0,-142.84829l47.44231,0l47.44231,0l0,142.84829c0,125.13983 3.55817,146.38999 23.72115,172.3624c49.81443,63.75048 8.30241,157.01506 -71.16346,157.01506c-22.5351,0 -47.44231,-10.62508 -65.23318,-29.51411z" fill="#3fb7a1" id="svg_4"/>
   <path d="m190.65131,3481.58921c-59.30289,-57.84766 -17.79087,-159.37619 65.23318,-159.37619c48.62836,0 94.88462,46.04201 94.88462,94.44515c0,48.40314 -46.25626,94.44515 -94.88462,94.44515c-22.5351,0 -47.44231,-10.62508 -65.23318,-29.51411z" fill="#3fb7a0" id="svg_5"/>
   <path d="m4934.8823,3481.58921c-18.97693,-17.70847 -29.65145,-42.50032 -29.65145,-64.93104c0,-22.43073 10.67452,-47.22258 29.65145,-64.93104c17.79086,-18.88903 42.69807,-29.51411 65.23317,-29.51411c22.5351,0 47.44231,10.62508 65.23318,29.51411c18.97692,17.70846 29.65144,42.50031 29.65144,64.93104c0,22.43072 -10.67452,47.22257 -29.65144,64.93104c-17.79087,18.88903 -42.69808,29.51411 -65.23318,29.51411c-22.5351,0 -47.44231,-10.62508 -65.23317,-29.51411z" fill="#3fb7a0" id="svg_6"/>
   <path d="m190.65131,2726.02801c-18.97692,-17.70847 -29.65144,-42.50032 -29.65144,-64.93104c0,-22.43073 10.67452,-47.22258 29.65144,-64.93105c58.11683,-59.02821 160.1178,-17.70846 160.1178,64.93105c0,48.40314 -46.25626,94.44515 -94.88462,94.44515c-22.5351,0 -47.44231,-10.62508 -65.23318,-29.51411z" fill="#3fb7a0" id="svg_7"/>
   <path d="m4934.8823,2726.02801c-59.30289,-57.84766 -17.79087,-159.37619 65.23317,-159.37619c48.62837,0 94.88462,46.04201 94.88462,94.44515c0,48.40314 -46.25625,94.44515 -94.88462,94.44515c-22.5351,0 -47.44231,-10.62508 -65.23317,-29.51411z" fill="#3fb7a0" id="svg_8"/>
   <path d="m190.65131,1970.4668c-18.97692,-17.70846 -29.65144,-42.50032 -29.65144,-64.93104c0,-22.43072 10.67452,-47.22257 29.65144,-64.93104c58.11683,-59.02822 160.1178,-17.70847 160.1178,64.93104c0,48.40314 -46.25626,94.44515 -94.88462,94.44515c-22.5351,0 -47.44231,-10.62508 -65.23318,-29.51411z" fill="#3fb7a0" id="svg_9"/>
   <path d="m4934.8823,1970.4668c-59.30289,-57.84765 -17.79087,-159.37619 65.23317,-159.37619c48.62837,0 94.88462,46.04201 94.88462,94.44515c0,48.40314 -46.25625,94.44515 -94.88462,94.44515c-22.5351,0 -47.44231,-10.62508 -65.23317,-29.51411z" fill="#3fb7a0" id="svg_10"/>
  </g>
 </g>
</svg>